# xmcd
#
# Track frame offsets:
#	150
#	16567
#	29870
#	51395
#	64447
#	79067
#	96042
#	110847
#	134097
#	157532
#	170102
#	184325
#
# Disc length: 2731 seconds
#
# Revision: 0
# Processed by: cddbd v1.5.1PL0 Copyright (c) Steve Scherf et al.
# Submitted via: EasyCDDAExtractor 7.5.0.1
#
DISCID=a90aa90c
DTITLE=Lobisomem - Atacado das Bichas
DYEAR=1900
DGENRE=Gauchesca
TTITLE0=Bum Bum Cum Bum Bum
TTITLE1=Apartado
TTITLE2=Esbudegado
TTITLE3=Vô Te Pagá Cum Galinha
TTITLE4=Sentimental... é o Meu Cavalo
TTITLE5=Atacado das Bichas
TTITLE6=Vão América
TTITLE7=As Vantagens do Bugio
TTITLE8=Acampamento
TTITLE9=Avental de Machão
TTITLE10=Galinheiro Nunca Mais
TTITLE11=Meu Guia
EXTD=
EXTT0=
EXTT1=
EXTT2=
EXTT3=
EXTT4=
EXTT5=
EXTT6=
EXTT7=
EXTT8=
EXTT9=
EXTT10=
EXTT11=
PLAYORDER=
